<svg viewBox="-29 0 454.664 447.569" xmlns="http://www.w3.org/2000/svg">
    <path
            d="M127.91 50.94h20.355v20.355H127.91v50.889a20.355 20.355 0 01-20.356 20.355 20.355 20.355 0 0120.356 20.356v50.888h20.355v20.356H127.91c-10.89-2.748-20.356-9.16-20.356-20.356v-40.71a20.355 20.355 0 00-20.355-20.356H77.02V132.36h10.178a20.355 20.355 0 0020.355-20.355v-40.71a20.355 20.355 0 0120.356-20.356m142.488 0a20.355 20.355 0 0120.355 20.356v40.71a20.355 20.355 0 0020.356 20.356h10.178v20.356h-10.178a20.355 20.355 0 00-20.356 20.355v40.711a20.355 20.355 0 01-20.355 20.356h-20.356v-20.356h20.356v-50.888a20.355 20.355 0 0120.355-20.356 20.355 20.355 0 01-20.355-20.355v-50.89h-20.356V50.94h20.356m-71.244 122.133a10.178 10.178 0 0110.177 10.178 10.178 10.178 0 01-10.177 10.178 10.178 10.178 0 01-10.178-10.178 10.178 10.178 0 0110.178-10.178m-40.711 0a10.178 10.178 0 0110.177 10.178 10.178 10.178 0 01-10.177 10.178 10.178 10.178 0 01-10.178-10.178 10.178 10.178 0 0110.178-10.178m81.422 0a10.178 10.178 0 0110.177 10.178 10.178 10.178 0 01-10.177 10.178 10.178 10.178 0 01-10.178-10.178 10.178 10.178 0 0110.178-10.178zM382.496 48.69h-11.683V15.54c0-8.583-6.958-15.54-15.54-15.54H41.391c-8.582 0-15.54 6.957-15.54 15.54v33.15H14.169C-9.637 48.69-29 68.058-29 91.858v213.707c0 23.805 19.363 43.168 43.168 43.168h135.375l-3.934 67.758h-44.066c-8.582 0-15.54 6.957-15.54 15.54 0 8.581 6.958 15.538 15.54 15.538h193.578c8.582 0 15.54-6.957 15.54-15.539s-6.958-15.539-15.54-15.539h-44.066l-3.934-67.758h135.375c23.805 0 43.168-19.363 43.168-43.168V91.858c0-23.8-19.367-43.168-43.168-43.168zM56.93 31.078l283.885 1.26s-1.08 130.094-1.08 230.072H56.93zm119.808 385.413l3.938-67.758h35.312l3.938 67.758zm217.848-110.926c0 6.668-5.422 12.09-12.09 12.09H14.168c-6.668 0-12.09-5.422-12.09-12.09V91.858c0-6.668 5.422-12.09 12.09-12.09h11.684v198.185c0 8.582 6.957 15.54 15.539 15.54h313.882c8.575 0 15.54-6.95 15.54-15.544V79.77h11.683c6.668 0 12.09 5.421 12.09 12.09z"/>
</svg>
